<svg xmlns:dc="http://purl.org/dc/elements/1.1/" xmlns:cc="http://creativecommons.org/ns#" xmlns:rdf="http://www.w3.org/1999/02/22-rdf-syntax-ns#" xmlns:svg="http://www.w3.org/2000/svg" xmlns="http://www.w3.org/2000/svg" xmlns:sodipodi="http://sodipodi.sourceforge.net/DTD/sodipodi-0.dtd" xmlns:inkscape="http://www.inkscape.org/namespaces/inkscape" width="100" height="100" viewBox="0 0 80 80" version="1.1" id="svg2" inkscape:version="0.48.2 r9819" sodipodi:docname="gear shift.svg">
  <metadata id="metadata10">
    <rdf:RDF>
      <cc:Work rdf:about="">
        <dc:format>image/svg+xml</dc:format>
        <dc:type rdf:resource="http://purl.org/dc/dcmitype/StillImage"/>
        <dc:title/>
      </cc:Work>
    </rdf:RDF>
  </metadata>
  <defs id="defs8">
    <marker inkscape:stockid="TriangleOutM" orient="auto" refY="0.0" refX="0.0" id="TriangleOutM" style="overflow:visible">
      <path id="path3919" d="M 5.77,0.0 L -2.88,5.0 L -2.88,-5.0 L 5.77,0.0 z " style="fill-rule:evenodd;stroke:#000000;stroke-width:1.0pt;marker-start:none" transform="scale(0.4)"/>
    </marker>
  </defs>
  <sodipodi:namedview pagecolor="#ffffff" bordercolor="#666666" borderopacity="1" objecttolerance="10" gridtolerance="10" guidetolerance="10" inkscape:pageopacity="0" inkscape:pageshadow="2" inkscape:window-width="1600" inkscape:window-height="853" id="namedview6" showgrid="true" inkscape:zoom="3.8342451" inkscape:cx="48.460121" inkscape:cy="57.642284" inkscape:window-x="-4" inkscape:window-y="-4" inkscape:window-maximized="1" inkscape:current-layer="svg2" inkscape:snap-grids="false">
    <inkscape:grid type="xygrid" id="grid3807" empspacing="5" visible="true" enabled="true" snapvisiblegridlinesonly="true"/>
  </sodipodi:namedview>
  <path style="color:#000000;fill:#000000;stroke:none;stroke-width:4;marker:none;visibility:visible;display:inline;overflow:visible;enable-background:accumulate" d="m 39.35,1.924062 c -20.794031,0 -37.6499998,16.855969 -37.6499998,37.65 0,20.794031 16.8559688,37.65 37.6499998,37.65 20.794027,0 37.649997,-16.855969 37.649997,-37.65 0,-20.794031 -16.85597,-37.65 -37.649997,-37.65 z m -0.025,2.675 c 19.254597,0 34.974997,15.662342 34.974997,34.975 0,19.312659 -15.7204,34.95 -34.974997,34.95 -19.254595,0 -34.9499998,-15.637341 -34.9499998,-34.95 0,-19.312658 15.6954048,-34.975 34.9499998,-34.975 z m 0,4.1749999 c -17.104413,0 -30.8749998,13.8082921 -30.8749998,30.8000001 0,16.99171 13.7705868,30.775 30.8749998,30.775 17.104417,0 30.874997,-13.78329 30.874997,-30.775 0,-16.991708 -13.77058,-30.8000001 -30.874997,-30.8000001 z m 16.099997,9.8000001 1.3,2.725 -2.6,0 1.3,-2.725 z m -10.6,0.325 1.3,2.725 -2.6,0 1.3,-2.725 z m -10.699997,0.125 1.3,2.725 -2.6,0 1.3,-2.725 z m -10.925,1.025 0.8,0 0,7.075 1.2,0 -1.6,2.775 -1.6,-2.775 1.2,0 0,-7.075 z m 31.824997,2.05 0.8,0 0,0.8 -0.8,0 0,-0.8 z m -10.6,0.325 0.8,0 0,0.8 -0.8,0 0,-0.8 z m -10.699997,0.125 0.8,0 0,0.8 -0.8,0 0,-0.8 z m 21.299997,1.15 0.8,0 0,0.8 -0.8,0 0,-0.8 z m -10.6,0.325 0.8,0 0,0.8 -0.8,0 0,-0.8 z m -10.699997,0.125 0.8,0 0,5.575 -0.8,0 0,-5.575 z m 21.299997,1.15 0.8,0 0,0.8 -0.8,0 0,-0.8 z m -10.6,0.325 0.8,0 0,0.8 -0.8,0 0,-0.8 z m 10.6,1.275 0.8,0 0,0.8 -0.8,0 0,-0.8 z m -10.6,0.325 0.8,0 0,2.375 -0.8,0 0,-2.375 z m 10.6,1.275 0.8,0 0,0.775 -0.8,0 0,-0.775 z m -21.099997,3.35 a 0.53792413,0.53792413 0 0 1 0.075,0 0.53792413,0.53792413 0 0 1 0.625,0.55 l 0,10.225 9.549997,0 0,-10.225 a 0.53792415,0.53792415 0 0 1 0.4,-0.55 0.53792415,0.53792415 0 0 1 0.65,0.55 l 0,10.225 9.85,0 0,-10.225 a 0.53792413,0.53792413 0 0 1 0.425,-0.55 0.53792413,0.53792413 0 0 1 0.65,0.55 l 0,10.65 a 0.53792413,0.53792413 0 0 1 0,0.1 0.53792413,0.53792413 0 0 1 0,0.05 0.53792413,0.53792413 0 0 1 0,0.05 0.53792413,0.53792413 0 0 1 0,0.05 0.53792413,0.53792413 0 0 1 -0.025,0.05 0.53792413,0.53792413 0 0 1 -0.05,0.05 0.53792413,0.53792413 0 0 1 -0.025,0.1 0.53792413,0.53792413 0 0 1 -0.025,0.025 0.53792413,0.53792413 0 0 1 -0.2,0.125 0.53792413,0.53792413 0 0 1 -0.2,0.05 l -10.4,0 0,10.225 a 0.53792415,0.53792415 0 1 1 -1.05,0 l 0,-10.225 -9.549997,0 0,10.225 a 0.53792413,0.53792413 0 1 1 -1.075,0 l 0,-10.225 -10.1,0 -0.1,0 a 0.54022887,0.54022887 0 0 1 -0.05,0 0.53792413,0.53792413 0 0 1 -0.025,0 0.54022887,0.54022887 0 0 1 -0.075,0 0.53792413,0.53792413 0 0 1 -0.025,0 0.54022887,0.54022887 0 0 1 -0.025,-0.05 0.53792413,0.53792413 0 0 1 -0.05,0 0.54022887,0.54022887 0 0 1 0,-0.025 0.53792413,0.53792413 0 0 1 -0.025,0 0.54022887,0.54022887 0 0 1 -0.025,0 0.53792413,0.53792413 0 0 1 -0.05,0 0.54022887,0.54022887 0 0 1 0,-0.025 0.53792413,0.53792413 0 0 1 -0.025,0 0.54022887,0.54022887 0 0 1 0,-0.05 0.54022887,0.54022887 0 0 1 -0.175,-0.6 0.54022887,0.54022887 0 0 1 0,-0.025 l 0.125,-9.95 a 0.53792413,0.53792413 0 0 1 0.375,-0.55 0.53792413,0.53792413 0 0 1 0.725,0.55 l -0.15,9.65 9.675,0 0,-10.225 a 0.53792413,0.53792413 0 0 1 0.375,-0.55 z m 10.674997,23.9 1.3,2.725 -2.599997,0 1.299997,-2.725 z m -10.474997,0.225 1.3,2.725 -2.6,0 1.3,-2.725 z m 10.074997,3.3 0.8,0 0,0.8 -0.8,0 0,-0.8 z m -10.474997,0.225 0.8,0 0,0.8 -0.8,0 0,-0.8 z m 10.474997,1.375 0.8,0 0,0.8 -0.8,0 0,-0.8 z m -10.474997,0.225 0.8,0 0,0.8 -0.8,0 0,-0.8 z m 10.474997,1.375 0.8,0 0,0.8 -0.8,0 0,-0.8 z m -10.474997,0.225 0.8,0 0,5.575 -0.8,0 0,-5.575 z m 10.474997,1.375 0.8,0 0,0.8 -0.8,0 0,-0.8 z m 0,1.6 0.8,0 0,2.375 -0.8,0 0,-2.375 z" id="path3924" inkscape:connector-curvature="0"/>
</svg>